<svg width="16" height="16" viewBox="0 0 16 16" fill="none" xmlns="http://www.w3.org/2000/svg">
<path d="M3.33325 12V14.5107L4.34325 13.9047L7.51792 12H10.6666C11.4019 12 11.9999 11.402 11.9999 10.6667V5.33333C11.9999 4.598 11.4019 4 10.6666 4H2.66659C1.93125 4 1.33325 4.598 1.33325 5.33333V10.6667C1.33325 11.402 1.93125 12 2.66659 12H3.33325ZM2.66659 5.33333H10.6666V10.6667H7.14859L4.66659 12.156V10.6667H2.66659V5.33333Z" fill="#8C8C8C"/>
<path d="M13.3333 1.33334H5.33333C4.598 1.33334 4 1.93134 4 2.66668H12C12.7353 2.66668 13.3333 3.26468 13.3333 4.00001V9.33334C14.0687 9.33334 14.6667 8.73534 14.6667 8.00001V2.66668C14.6667 1.93134 14.0687 1.33334 13.3333 1.33334Z" fill="#8C8C8C"/>
</svg>
