<svg width="24" height="24" viewBox="0 0 24 24" fill="none" xmlns="http://www.w3.org/2000/svg">
<path fill-rule="evenodd" clip-rule="evenodd" d="M12.0002 2.39999C10.7271 2.39999 9.50624 2.90571 8.60607 3.80588C7.70589 4.70606 7.20018 5.92695 7.20018 7.19999V8.39999H6.00018C5.70476 8.39997 5.41972 8.50893 5.19963 8.70599C4.97954 8.90305 4.83988 9.17437 4.80738 9.46799L3.60738 20.268C3.58882 20.4357 3.60583 20.6054 3.65732 20.7661C3.7088 20.9268 3.79358 21.0748 3.90615 21.2005C4.01871 21.3262 4.15651 21.4268 4.31056 21.4956C4.46461 21.5644 4.63145 21.6 4.80018 21.6H19.2002C19.3689 21.6 19.5357 21.5644 19.6898 21.4956C19.8439 21.4268 19.9817 21.3262 20.0942 21.2005C20.2068 21.0748 20.2916 20.9268 20.343 20.7661C20.3945 20.6054 20.4115 20.4357 20.393 20.268L19.193 9.46799C19.1605 9.17437 19.0208 8.90305 18.8007 8.70599C18.5806 8.50893 18.2956 8.39997 18.0002 8.39999H16.8002V7.19999C16.8002 5.92695 16.2945 4.70606 15.3943 3.80588C14.4941 2.90571 13.2732 2.39999 12.0002 2.39999ZM14.4002 8.39999V7.19999C14.4002 6.56347 14.1473 5.95302 13.6972 5.50294C13.2471 5.05285 12.6367 4.79999 12.0002 4.79999C11.3637 4.79999 10.7532 5.05285 10.3031 5.50294C9.85304 5.95302 9.60018 6.56347 9.60018 7.19999V8.39999H14.4002ZM7.20018 12C7.20018 11.6817 7.32661 11.3765 7.55165 11.1515C7.7767 10.9264 8.08192 10.8 8.40018 10.8C8.71844 10.8 9.02366 10.9264 9.24871 11.1515C9.47375 11.3765 9.60018 11.6817 9.60018 12C9.60018 12.3183 9.47375 12.6235 9.24871 12.8485C9.02366 13.0736 8.71844 13.2 8.40018 13.2C8.08192 13.2 7.7767 13.0736 7.55165 12.8485C7.32661 12.6235 7.20018 12.3183 7.20018 12ZM15.6002 10.8C15.2819 10.8 14.9767 10.9264 14.7517 11.1515C14.5266 11.3765 14.4002 11.6817 14.4002 12C14.4002 12.3183 14.5266 12.6235 14.7517 12.8485C14.9767 13.0736 15.2819 13.2 15.6002 13.2C15.9184 13.2 16.2237 13.0736 16.4487 12.8485C16.6738 12.6235 16.8002 12.3183 16.8002 12C16.8002 11.6817 16.6738 11.3765 16.4487 11.1515C16.2237 10.9264 15.9184 10.8 15.6002 10.8Z" fill="currentColor"/>
</svg>
