<svg width="17" height="20" viewBox="0 0 31 31" fill="none" xmlns="http://www.w3.org/2000/svg">
<path d="M13.0901 26.75H18.0901C18.0901 28.125 16.9651 29.25 15.5901 29.25C14.2151 29.25 13.0901 28.125 13.0901 26.75ZM26.8401 24.25V25.5H4.34009V24.25L6.84009 21.75V14.25C6.84009 10.375 9.34009 7 13.0901 5.875V5.5C13.0901 4.125 14.2151 3 15.5901 3C16.9651 3 18.0901 4.125 18.0901 5.5V5.875C21.8401 7 24.3401 10.375 24.3401 14.25V21.75L26.8401 24.25ZM21.8401 14.25C21.8401 10.75 19.0901 8 15.5901 8C12.0901 8 9.34009 10.75 9.34009 14.25V23H21.8401V14.25Z" fill="black"/>
</svg>
