<svg width="40" height="40" viewBox="0 0 40 40" fill="none" xmlns="http://www.w3.org/2000/svg">
<path d="M30.5986 25.417C29.9716 24.3369 29.0394 21.2806 29.0394 17.2889C29.0394 14.8916 28.0871 12.5925 26.392 10.8974C24.6969 9.2023 22.3978 8.25 20.0006 8.25C17.6033 8.25 15.3043 9.2023 13.6092 10.8974C11.914 12.5925 10.9617 14.8916 10.9617 17.2889C10.9617 21.2818 10.0285 24.3369 9.4014 25.417C9.24127 25.6916 9.15638 26.0036 9.15528 26.3215C9.15419 26.6394 9.23694 26.9519 9.39519 27.2276C9.55343 27.5033 9.78158 27.7324 10.0566 27.8918C10.3316 28.0512 10.6439 28.1352 10.9617 28.1355H15.5727C15.7812 29.1559 16.3358 30.073 17.1427 30.7316C17.9495 31.3903 18.9591 31.75 20.0006 31.75C21.0421 31.75 22.0517 31.3903 22.8585 30.7316C23.6654 30.073 24.22 29.1559 24.4285 28.1355H29.0394C29.3572 28.135 29.6693 28.0509 29.9442 27.8914C30.219 27.7319 30.447 27.5028 30.6051 27.2271C30.7633 26.9515 30.8459 26.639 30.8448 26.3212C30.8436 26.0034 30.7587 25.6916 30.5986 25.417ZM20.0006 29.9432C19.44 29.9431 18.8932 29.7691 18.4355 29.4454C17.9778 29.1217 17.6317 28.664 17.4449 28.1355H22.5563C22.3695 28.664 22.0234 29.1217 21.5657 29.4454C21.108 29.7691 20.5612 29.9431 20.0006 29.9432ZM10.9617 26.3277C11.8317 24.8318 12.7695 21.3654 12.7695 17.2889C12.7695 15.371 13.5313 13.5318 14.8874 12.1757C16.2435 10.8196 18.0828 10.0578 20.0006 10.0578C21.9184 10.0578 23.7576 10.8196 25.1137 12.1757C26.4698 13.5318 27.2317 15.371 27.2317 17.2889C27.2317 21.362 28.1672 24.8284 29.0394 26.3277H10.9617Z" fill="currentColor"/>
</svg>
