<svg width="51" height="51" viewBox="0 0 51 51" fill="none" xmlns="http://www.w3.org/2000/svg">
<circle cx="25.5732" cy="25.7226" r="25.0204" fill="#D9D9D9"/>
<g clip-path="url(#clip0_564_1208)">
<path d="M21.3716 11.47C18.2009 12.5276 15.4666 14.535 13.5701 17.1974C11.6737 19.8597 10.7151 23.0366 10.8353 26.2615C10.9554 29.4863 12.1478 32.5892 14.2375 35.1142C16.3271 37.6393 19.2038 39.4534 22.445 40.2902C25.0728 40.9422 27.8258 40.9708 30.4676 40.3737C32.8608 39.8568 35.0733 38.7512 36.8886 37.1651C38.7779 35.4639 40.1493 33.2997 40.8553 30.9052C41.6224 28.3012 41.7589 25.5629 41.2544 22.9004H26.4985V28.786H35.0441C34.8733 29.7247 34.5073 30.6206 33.9681 31.4202C33.4288 32.2197 32.7273 32.9064 31.9055 33.4392C30.8621 34.1032 29.6857 34.5498 28.452 34.7503C27.2148 34.9715 25.9458 34.9715 24.7085 34.7503C23.4544 34.5012 22.2681 34.0036 21.2253 33.289C19.5498 32.1486 18.2917 30.5284 17.6305 28.6596C16.9584 26.7559 16.9584 24.6921 17.6305 22.7883C18.1011 21.4539 18.8791 20.2389 19.9064 19.2341C21.082 18.063 22.5703 17.226 24.2081 16.8147C25.8459 16.4034 27.5699 16.4339 29.1908 16.9027C30.4572 17.2763 31.6152 17.9294 32.5724 18.8098C33.536 17.888 34.4979 16.9639 35.4581 16.0374C35.954 15.5392 36.4944 15.0648 36.9828 14.5547C35.5214 13.2472 33.8062 12.2298 31.9353 11.5606C28.5282 10.3711 24.8002 10.3391 21.3716 11.47Z" fill="white"/>
<path d="M21.3716 11.4697C24.7999 10.338 28.5279 10.3691 31.9353 11.5579C33.8065 12.2316 35.521 13.2539 36.9804 14.5663C36.4845 15.0764 35.9614 15.5532 35.4557 16.049C34.4938 16.9723 33.5327 17.8925 32.5724 18.8095C31.6152 17.9291 30.4572 17.276 29.1909 16.9024C27.5704 16.4319 25.8465 16.3997 24.2083 16.8093C22.5701 17.2189 21.0808 18.0544 19.9039 19.2242C18.8767 20.2291 18.0987 21.4441 17.6281 22.7785L12.4888 18.9525C14.3283 15.4449 17.5134 12.7618 21.3716 11.4697Z" fill="#E33629"/>
<path d="M11.1253 22.7429C11.4013 21.4265 11.8599 20.1517 12.4888 18.9526L17.6281 22.7882C16.956 24.6919 16.956 26.7557 17.6281 28.6595C15.9158 29.9309 14.2027 31.2086 12.4888 32.4927C10.9149 29.4803 10.4349 26.048 11.1253 22.7429Z" fill="#F8BD00"/>
<path d="M26.4982 22.8979H41.2541C41.7586 25.5605 41.6221 28.2988 40.855 30.9028C40.149 33.2973 38.7776 35.4614 36.8883 37.1626C35.2298 35.9183 33.5638 34.6835 31.9052 33.4391C32.7275 32.9058 33.4293 32.2184 33.9686 31.418C34.508 30.6176 34.8737 29.7207 35.0438 28.7812H26.4982C26.4957 26.8217 26.4982 24.8598 26.4982 22.8979Z" fill="#587DBD"/>
<path d="M12.4863 32.4928C14.2003 31.2215 15.9134 29.9437 17.6256 28.6597C18.2881 30.529 19.548 32.1493 21.2254 33.289C22.2714 34.0003 23.4603 34.4939 24.716 34.7384C25.9533 34.9596 27.2223 34.9596 28.4595 34.7384C29.6932 34.5379 30.8696 34.0913 31.913 33.4273C33.5716 34.6716 35.2376 35.9064 36.8961 37.1508C35.0811 38.7377 32.8685 39.8442 30.4751 40.3618C27.8333 40.9589 25.0803 40.9303 22.4525 40.2783C20.3743 39.7448 18.433 38.8042 16.7505 37.5155C14.9698 36.1558 13.5153 34.4426 12.4863 32.4928Z" fill="#319F43"/>
</g>
<defs>
<clipPath id="clip0_564_1208">
<rect width="31.7332" height="30.5127" fill="white" transform="translate(10.3169 10.4663)"/>
</clipPath>
</defs>
</svg>
