<svg width="20" height="16" viewBox="0 0 20 16" fill="none" xmlns="http://www.w3.org/2000/svg">
<path fill-rule="evenodd" clip-rule="evenodd" d="M0.25 1.50033C0.25 0.902017 0.735025 0.416992 1.33333 0.416992H18.6667C19.265 0.416992 19.75 0.902017 19.75 1.50033C19.75 2.09863 19.265 2.58366 18.6667 2.58366H1.33333C0.735025 2.58366 0.25 2.09863 0.25 1.50033ZM0.25 8.00033C0.25 7.40202 0.735025 6.91699 1.33333 6.91699H18.6667C19.265 6.91699 19.75 7.40202 19.75 8.00033C19.75 8.59863 19.265 9.08366 18.6667 9.08366H1.33333C0.735025 9.08366 0.25 8.59863 0.25 8.00033ZM0.25 14.5003C0.25 13.902 0.735025 13.417 1.33333 13.417H18.6667C19.265 13.417 19.75 13.902 19.75 14.5003C19.75 15.0986 19.265 15.5837 18.6667 15.5837H1.33333C0.735025 15.5837 0.25 15.0986 0.25 14.5003Z" fill="black"/>
</svg>
