<svg width="24" height="24" viewBox="0 0 24 24" fill="none" xmlns="http://www.w3.org/2000/svg">
<path fill-rule="evenodd" clip-rule="evenodd" d="M3.80625 6.20641C4.70639 5.30655 5.92707 4.80104 7.19985 4.80104C8.47264 4.80104 9.69332 5.30655 10.5935 6.20641L11.9999 7.61161L13.4063 6.20641C13.849 5.74796 14.3787 5.38229 14.9643 5.13072C15.5499 4.87916 16.1798 4.74675 16.8171 4.74121C17.4545 4.73567 18.0865 4.85712 18.6764 5.09847C19.2663 5.33982 19.8023 5.69623 20.253 6.14692C20.7036 6.5976 21.0601 7.13353 21.3014 7.72343C21.5427 8.31333 21.6642 8.9454 21.6587 9.58274C21.6531 10.2201 21.5207 10.8499 21.2691 11.4356C21.0176 12.0212 20.6519 12.5508 20.1935 12.9936L11.9999 21.1884L3.80625 12.9936C2.90639 12.0935 2.40088 10.8728 2.40088 9.60001C2.40088 8.32722 2.90639 7.10654 3.80625 6.20641Z" fill="currentColor"/>
</svg>
