<svg width="30" height="26" viewBox="0 0 30 26" fill="none" xmlns="http://www.w3.org/2000/svg">
<path d="M15.612 0.213959C15.4346 0.0756179 15.216 0.000488281 14.991 0.000488281C14.766 0.000488281 14.5474 0.0756179 14.37 0.213959L0 11.419L1.243 12.991L3 11.621V24C3.00106 24.5301 3.21211 25.0382 3.58695 25.413C3.9618 25.7878 4.46989 25.9989 5 26H25C25.5301 25.9989 26.0382 25.7878 26.413 25.413C26.7879 25.0382 26.9989 24.5301 27 24V11.63L28.757 13L30 11.428L15.612 0.213959ZM17 24H13V16H17V24ZM19 24V16C19 15.4695 18.7893 14.9608 18.4142 14.5857C18.0391 14.2107 17.5304 14 17 14H13C12.4696 14 11.9609 14.2107 11.5858 14.5857C11.2107 14.9608 11 15.4695 11 16V24H5V10.062L15 2.27196L25 10.072V24H19Z" fill="#222222"/>
</svg>
