<svg width="51" height="51" viewBox="0 0 51 51" fill="none" xmlns="http://www.w3.org/2000/svg">
<circle cx="25.4662" cy="25.7226" r="25.0204" fill="#FFDD65"/>
<path fill-rule="evenodd" clip-rule="evenodd" d="M38.7414 24.2291C38.7414 18.5812 32.9721 14.0039 25.8541 14.0039H25.8553C18.7373 14.0039 12.9692 18.5825 12.9692 24.2291C12.9692 27.822 15.3071 30.9827 18.8416 32.8066L17.7469 37.4014C17.4941 38.2122 17.7113 38.2484 18.3262 37.9174L23.7359 34.3157C24.4388 34.4076 25.1467 34.4535 25.8553 34.4531C32.9721 34.4531 38.7414 29.8758 38.7414 24.2291ZM16.5314 21.3289C16.4588 21.3583 16.3922 21.4025 16.3359 21.4598C16.2272 21.5704 16.1662 21.7204 16.1662 21.8768C16.1662 21.879 16.1662 21.8812 16.1663 21.8833C16.2761 21.6945 16.3981 21.5096 16.5314 21.3289Z" fill="black"/>
</svg>
