<svg width="25" height="25" viewBox="0 0 24 15" fill="none" xmlns="http://www.w3.org/2000/svg">
<path d="M1.10812 0.178802C0.986849 0.177087 0.866449 0.199492 0.753914 0.244713C0.64138 0.289934 0.538955 0.35707 0.452592 0.44222C0.36623 0.527369 0.297652 0.628835 0.250844 0.740718C0.204036 0.852602 0.179932 0.972673 0.179932 1.09395C0.179932 1.21523 0.204036 1.33531 0.250844 1.44719C0.297652 1.55907 0.36623 1.66054 0.452592 1.74569C0.538955 1.83084 0.64138 1.89797 0.753914 1.9432C0.866449 1.98842 0.986849 2.01082 1.10812 2.00911H23.0717C23.193 2.01082 23.3134 1.98842 23.4259 1.9432C23.5385 1.89797 23.6409 1.83084 23.7273 1.74569C23.8136 1.66054 23.8822 1.55907 23.929 1.44719C23.9758 1.33531 23.9999 1.21523 23.9999 1.09395C23.9999 0.972673 23.9758 0.852602 23.929 0.740718C23.8822 0.628835 23.8136 0.527369 23.7273 0.44222C23.6409 0.35707 23.5385 0.289934 23.4259 0.244713C23.3134 0.199492 23.193 0.177087 23.0717 0.178802H1.10812ZM1.10812 6.58486C0.986849 6.58315 0.866449 6.60555 0.753914 6.65077C0.64138 6.69599 0.538955 6.76313 0.452592 6.84828C0.36623 6.93343 0.297652 7.03489 0.250844 7.14678C0.204036 7.25866 0.179932 7.37873 0.179932 7.50001C0.179932 7.62129 0.204036 7.74137 0.250844 7.85325C0.297652 7.96513 0.36623 8.0666 0.452592 8.15175C0.538955 8.2369 0.64138 8.30404 0.753914 8.34926C0.866449 8.39448 0.986849 8.41688 1.10812 8.41517H23.0717C23.193 8.41688 23.3134 8.39448 23.4259 8.34926C23.5385 8.30404 23.6409 8.2369 23.7273 8.15175C23.8136 8.0666 23.8822 7.96513 23.929 7.85325C23.9758 7.74137 23.9999 7.62129 23.9999 7.50001C23.9999 7.37873 23.9758 7.25866 23.929 7.14678C23.8822 7.03489 23.8136 6.93343 23.7273 6.84828C23.6409 6.76313 23.5385 6.69599 23.4259 6.65077C23.3134 6.60555 23.193 6.58315 23.0717 6.58486H1.10812ZM1.10812 12.9909C0.986849 12.9892 0.866449 13.0116 0.753914 13.0568C0.64138 13.1021 0.538955 13.1692 0.452592 13.2543C0.36623 13.3395 0.297652 13.441 0.250844 13.5528C0.204036 13.6647 0.179932 13.7848 0.179932 13.9061C0.179932 14.0274 0.204036 14.1474 0.250844 14.2593C0.297652 14.3712 0.36623 14.4727 0.452592 14.5578C0.538955 14.643 0.64138 14.7101 0.753914 14.7553C0.866449 14.8005 0.986849 14.8229 1.10812 14.8212H23.0717C23.193 14.8229 23.3134 14.8005 23.4259 14.7553C23.5385 14.7101 23.6409 14.643 23.7273 14.5578C23.8136 14.4727 23.8822 14.3712 23.929 14.2593C23.9758 14.1474 23.9999 14.0274 23.9999 13.9061C23.9999 13.7848 23.9758 13.6647 23.929 13.5528C23.8822 13.441 23.8136 13.3395 23.7273 13.2543C23.6409 13.1692 23.5385 13.1021 23.4259 13.0568C23.3134 13.0116 23.193 12.9892 23.0717 12.9909H1.10812Z" fill="black"/>
</svg>
