<svg width="24" height="24" viewBox="0 0 24 24" fill="none" xmlns="http://www.w3.org/2000/svg">
<path fill-rule="evenodd" clip-rule="evenodd" d="M18.3021 10.4579C18.3021 11.488 18.0992 12.5081 17.705 13.4598C17.3108 14.4115 16.733 15.2762 16.0046 16.0046C15.2762 16.733 14.4115 17.3108 13.4598 17.705C12.5081 18.0992 11.488 18.3021 10.4579 18.3021C9.4278 18.3021 8.40777 18.0992 7.45607 17.705C6.50436 17.3108 5.63962 16.733 4.91122 16.0046C4.18282 15.2762 3.60502 14.4115 3.21081 13.4598C2.8166 12.5081 2.61371 11.488 2.61371 10.4579C2.61371 8.3775 3.44015 6.3823 4.91122 4.91122C6.3823 3.44015 8.3775 2.61371 10.4579 2.61371C12.5383 2.61371 14.5335 3.44015 16.0046 4.91122C17.4757 6.3823 18.3021 8.3775 18.3021 10.4579ZM16.8727 18.7205C14.7711 20.352 12.1268 21.1213 9.47791 20.8718C6.82907 20.6222 4.3749 19.3726 2.61501 17.3772C0.85513 15.3818 -0.0781634 12.7908 0.0051318 10.1315C0.0884271 7.47224 1.18205 4.94467 3.06336 3.06336C4.94467 1.18205 7.47224 0.0884271 10.1315 0.0051318C12.7908 -0.0781634 15.3818 0.85513 17.3772 2.61501C19.3726 4.3749 20.6222 6.82907 20.8718 9.47791C21.1213 12.1268 20.352 14.7711 18.7205 16.8727L23.5839 21.7361C23.7123 21.8558 23.8154 22.0002 23.8868 22.1605C23.9583 22.3209 23.9967 22.494 23.9998 22.6696C24.0029 22.8451 23.9706 23.0195 23.9048 23.1823C23.8391 23.3451 23.7412 23.4929 23.6171 23.6171C23.4929 23.7412 23.3451 23.8391 23.1823 23.9048C23.0195 23.9706 22.8451 24.0029 22.6696 23.9998C22.494 23.9967 22.3209 23.9583 22.1605 23.8868C22.0002 23.8154 21.8558 23.7123 21.7361 23.5839L16.8727 18.7205Z" fill="currentColor"/>
</svg>
