<svg width="22" height="22" viewBox="0 0 22 22" fill="none" xmlns="http://www.w3.org/2000/svg">
<path d="M21 4.75H9.75M13.5 17.25H2.25M13.5 17.25C13.5 19.3211 15.1789 21 17.25 21C19.3211 21 21 19.3211 21 17.25C21 15.1789 19.3211 13.5 17.25 13.5C15.1789 13.5 13.5 15.1789 13.5 17.25ZM8.5 4.75C8.5 6.82107 6.82107 8.5 4.75 8.5C2.67893 8.5 1 6.82107 1 4.75C1 2.67893 2.67893 1 4.75 1C6.82107 1 8.5 2.67893 8.5 4.75Z" stroke="black" stroke-width="2" stroke-linecap="round" stroke-linejoin="round"/>
</svg>
