<svg width="20" height="20" viewBox="0 0 20 20" fill="none" xmlns="http://www.w3.org/2000/svg">
<path d="M16 7.60039C16.731 7.60042 17.4447 7.37791 18.0461 6.96247C18.6476 6.54703 19.1083 5.95834 19.3671 5.27468C19.6258 4.59102 19.6703 3.8448 19.4946 3.13523C19.319 2.42567 18.9314 1.7864 18.3836 1.30243C17.8358 0.818463 17.1536 0.512729 16.4278 0.425888C15.702 0.339047 14.967 0.475214 14.3204 0.816281C13.6739 1.15735 13.1465 1.68715 12.8084 2.33524C12.4703 2.98333 12.3375 3.71899 12.4276 4.44439L6.49963 7.40839C5.9911 6.91802 5.34954 6.5881 4.65486 6.45973C3.96017 6.33136 3.24307 6.41022 2.59289 6.68648C1.9427 6.96274 1.38816 7.42419 0.998354 8.01335C0.608546 8.60252 0.400696 9.29335 0.400696 9.99979C0.400696 10.7062 0.608546 11.3971 0.998354 11.9862C1.38816 12.5754 1.9427 13.0369 2.59289 13.3131C3.24307 13.5894 3.96017 13.6682 4.65486 13.5399C5.34954 13.4115 5.9911 13.0816 6.49963 12.5912L12.4276 15.5552C12.3226 16.3979 12.5189 17.2506 12.9818 17.9625C13.4446 18.6745 14.1443 19.1999 14.9571 19.4459C15.7698 19.692 16.6434 19.6427 17.4234 19.307C18.2034 18.9712 18.8396 18.3705 19.2196 17.611C19.5995 16.8516 19.6988 15.9822 19.4997 15.1567C19.3007 14.3311 18.8163 13.6025 18.132 13.0996C17.4478 12.5966 16.6077 12.3518 15.7604 12.4083C14.9131 12.4648 14.113 12.8191 13.5016 13.4084L7.57363 10.4444C7.60994 10.1495 7.60994 9.85128 7.57363 9.55639L13.5016 6.59239C14.1472 7.21639 15.028 7.60039 16 7.60039Z" fill="currentColor"/>
</svg>
